<?xml version="1.0" encoding="utf-8"?>
<!DOCTYPE svg PUBLIC "-//W3C//DTD SVG 1.1//EN" "http://www.w3.org/Graphics/SVG/1.1/DTD/svg11.dtd">
<svg version="1.1" id="图形" xmlns="http://www.w3.org/2000/svg" xmlns:xlink="http://www.w3.org/1999/xlink" x="0px" y="0px" width="1024px" height="1024px" viewBox="0 0 1024 1024" enable-background="new 0 0 1024 1024" xml:space="preserve">
  <path fill="#272636" d="M386.990351 59.354198 386.990351 452.041812c0 9.866718-8.003606 17.84953-17.851285 17.84953-9.849726 0-17.850261-7.982812-17.850261-17.84953l0-392.687614c0-9.850345 8.000536-17.851577 17.850261-17.851577C378.986745 41.502621 386.990351 49.503852 386.990351 59.354198zM529.793466 59.354198 529.793466 452.041812c0 9.866718-8.003606 17.84953-17.853331 17.84953-9.846656 0-17.848215-7.982812-17.848215-17.84953l0-392.687614c0-9.850345 8.001559-17.851577 17.848215-17.851577C521.788837 41.502621 529.793466 49.503852 529.793466 59.354198zM815.393554 487.740872c-9.845632 0-17.846168-7.983835-17.846168-17.84953l0-481.935264c0-19.697621-15.987768-35.700083-35.702569-35.700083L262.038521-47.744006c-19.715825 0-35.700523 16.002462-35.700523 35.700083L226.337999 469.890318c0 9.866718-8.001559 17.84953-17.850261 17.84953-8.3014 0-15.271424-5.681396-17.26286-13.373589-0.194436 0.107447-0.396036 0.204661-0.588425 0.316202l0-486.72843c0-39.429011 31.953022-71.39812 71.401046-71.39812l499.806295 0c39.430627 0 71.401046 31.969109 71.401046 71.39812L833.244839 469.890318C833.245862 479.757037 825.244303 487.740872 815.393554 487.740872zM869.04872 612.687582 663.473431 612.687582l-65.856545 65.853847c-3.810948 3.811816-8.844798 5.641487-13.840783 5.52176-0.146339 0.00307-0.287561 0.021489-0.4339 0.021489L440.541135 684.084679c-0.128942 0-0.254814-0.016373-0.382732-0.019443-4.979612 0.105401-9.991971-1.726318-13.789616-5.523807l-65.856545-65.853847L154.93593 612.687582c-9.848702 0-17.849238-7.984858-17.849238-17.850553 0-9.849322 8.000536-17.850553 17.849238-17.850553l214.203137 0c0.225137 0 0.444133 0.025583 0.667223 0.033769 5.0799-0.190335 10.221201 1.633197 14.097644 5.508457l65.856545 65.85487 124.462669 0 65.856545-65.85487c3.875419-3.876284 9.017744-5.698792 14.09662-5.508457 0.224113-0.008186 0.44311-0.033769 0.667223-0.033769l214.202113 0c9.848702 0 17.849238 8.001231 17.849238 17.850553C886.898981 604.702724 878.897422 612.687582 869.04872 612.687582zM672.592487 59.354198 672.592487 452.041812c0 9.866718-7.998489 17.84953-17.848215 17.84953s-17.851285-7.982812-17.851285-17.84953l0-392.687614c0-9.850345 8.001559-17.851577 17.851285-17.851577S672.592487 49.503852 672.592487 59.354198z" transform="translate(0, 812) scale(1, -1)"/>
</svg>
